<svg xmlns="http://www.w3.org/2000/svg" viewBox="0 0 700 1000"><defs><linearGradient id="s" x1="0" y1="0" x2="1" y2="1"><stop stop-color="#c8b895"/><stop offset=".28" stop-color="#67717a"/><stop offset=".63" stop-color="#222a30"/><stop offset="1" stop-color="#92774c"/></linearGradient><linearGradient id="k" x1="0" y1="0" x2="1" y2="1"><stop stop-color="#ddb08a"/><stop offset="1" stop-color="#aa7456"/></linearGradient></defs><path d="M180 970L230 465Q350 405 470 465L520 970Z" fill="#172639"/><path d="M270 175Q350 112 430 175L418 322Q350 372 282 322Z" fill="url(#k)" stroke="#291d18" stroke-width="10"/><path d="M250 210Q262 120 350 108Q436 118 450 205L430 345L395 290L414 180Q350 144 286 180L305 296L270 350Z" fill="#2d2119"/><path d="M222 440Q350 378 478 440L506 686L430 752H270L194 686Z" fill="url(#s)" stroke="#14191c" stroke-width="14"/><path d="M256 430L350 500L444 430L417 592Q350 622 283 592Z" fill="#252c32" stroke="#b18a50" stroke-width="7"/><circle cx="350" cy="492" r="25" fill="#bd8b3d" stroke="#f1ca77" stroke-width="6"/><path d="M194 484L98 555L135 758L209 728L218 542Z" fill="url(#s)" stroke="#14191c" stroke-width="14"/><path d="M506 484L602 555L565 758L491 728L482 542Z" fill="url(#s)" stroke="#14191c" stroke-width="14"/><path d="M255 752L329 752L306 972H215Z" fill="url(#s)" stroke="#14191c" stroke-width="14"/><path d="M371 752L445 752L485 972H394Z" fill="url(#s)" stroke="#14191c" stroke-width="14"/></svg>